<svg width="500" height="500" viewBox="0 0 500 500" fill="none" xmlns="http://www.w3.org/2000/svg">
<path d="M250.45 84C180.725 84 124 140.725 124 210.45C124 280.175 180.725 336.9 250.45 336.9C320.175 336.9 376.9 280.175 376.9 210.45C376.9 140.725 320.175 84 250.45 84ZM135.383 216.07H180.397C180.796 233.276 183.021 249.481 186.733 264.11H148.545C140.891 249.633 136.218 233.349 135.383 216.07ZM256.07 145.553V95.802C273.537 99.2133 289.043 118.302 298.76 145.553H256.07ZM302.309 156.793C306.341 171.346 308.819 187.661 309.266 204.83H256.07V156.793H302.309ZM244.83 95.802V145.553H202.143C211.857 118.302 227.363 99.2133 244.83 95.802ZM244.83 156.793V204.83H191.634C192.081 187.661 194.559 171.346 198.591 156.793H244.83ZM180.397 204.83H135.383C136.218 187.551 140.891 171.267 148.545 156.793H186.733C183.018 171.419 180.793 187.624 180.397 204.83ZM191.634 216.07H244.83V264.11H198.591C194.562 249.557 192.081 233.242 191.634 216.07ZM244.83 275.35V325.098C227.363 321.687 211.86 302.598 202.143 275.347L244.83 275.35ZM256.07 325.098V275.35H298.76C289.043 302.598 273.537 321.687 256.07 325.098ZM256.07 264.11V216.07H309.266C308.819 233.242 306.341 249.557 302.309 264.11H256.07ZM320.506 216.07H365.517C364.682 233.349 360.009 249.633 352.355 264.11H314.17C317.882 249.481 320.107 233.276 320.506 216.07ZM320.506 204.83C320.107 187.624 317.882 171.419 314.17 156.793H352.355C360.009 171.27 364.682 187.551 365.517 204.83H320.506ZM345.583 145.553H310.93C304.88 126.971 296.264 111.589 285.895 100.843C310.39 108.784 331.319 124.708 345.583 145.553ZM215.005 100.843C204.639 111.589 196.023 126.971 189.97 145.553H155.317C169.581 124.708 190.51 108.784 215.005 100.843ZM155.32 275.35H189.973C196.023 293.929 204.639 309.311 215.007 320.06C190.51 312.116 169.584 296.192 155.32 275.35ZM285.895 320.057C296.261 309.311 304.88 293.929 310.93 275.35H345.583C331.316 296.192 310.39 312.116 285.895 320.057Z" fill="white"/>
<path d="M445.863 426.712H454.743V428.224H445.863V426.712ZM446.055 434.464H456.159V436H444.279V419.2H455.799V420.736H446.055V434.464Z" fill="white"/>
<path d="M423.335 436V419.2H429.623C431.047 419.2 432.271 419.432 433.295 419.896C434.319 420.344 435.103 421 435.647 421.864C436.207 422.712 436.487 423.744 436.487 424.96C436.487 426.144 436.207 427.168 435.647 428.032C435.103 428.88 434.319 429.536 433.295 430C432.271 430.448 431.047 430.672 429.623 430.672H424.319L425.111 429.856V436H423.335ZM434.807 436L430.487 429.904H432.407L436.751 436H434.807ZM425.111 430L424.319 429.16H429.575C431.255 429.16 432.527 428.792 433.391 428.056C434.271 427.32 434.711 426.288 434.711 424.96C434.711 423.616 434.271 422.576 433.391 421.84C432.527 421.104 431.255 420.736 429.575 420.736H424.319L425.111 419.896V430Z" fill="white"/>
<path d="M399.844 436L407.524 419.2H409.276L416.956 436H415.084L408.028 420.232H408.748L401.692 436H399.844ZM402.868 431.512L403.396 430.072H413.164L413.692 431.512H402.868Z" fill="white"/>
<path d="M389.4 436.144C388.136 436.144 386.968 435.936 385.896 435.52C384.824 435.088 383.896 434.488 383.112 433.72C382.328 432.952 381.712 432.048 381.264 431.008C380.832 429.968 380.616 428.832 380.616 427.6C380.616 426.368 380.832 425.232 381.264 424.192C381.712 423.152 382.328 422.248 383.112 421.48C383.912 420.712 384.848 420.12 385.92 419.704C386.992 419.272 388.16 419.056 389.424 419.056C390.64 419.056 391.784 419.264 392.856 419.68C393.928 420.08 394.832 420.688 395.568 421.504L394.44 422.632C393.752 421.928 392.992 421.424 392.16 421.12C391.328 420.8 390.432 420.64 389.472 420.64C388.464 420.64 387.528 420.816 386.664 421.168C385.8 421.504 385.048 421.992 384.408 422.632C383.768 423.256 383.264 423.992 382.896 424.84C382.544 425.672 382.368 426.592 382.368 427.6C382.368 428.608 382.544 429.536 382.896 430.384C383.264 431.216 383.768 431.952 384.408 432.592C385.048 433.216 385.8 433.704 386.664 434.056C387.528 434.392 388.464 434.56 389.472 434.56C390.432 434.56 391.328 434.4 392.16 434.08C392.992 433.76 393.752 433.248 394.44 432.544L395.568 433.672C394.832 434.488 393.928 435.104 392.856 435.52C391.784 435.936 390.632 436.144 389.4 436.144Z" fill="white"/>
<path d="M368.004 436V429.76L368.412 430.864L361.284 419.2H363.18L369.444 429.448H368.436L374.7 419.2H376.476L369.348 430.864L369.756 429.76V436H368.004Z" fill="white"/>
<path d="M341.489 436L349.169 419.2H350.921L358.601 436H356.729L349.673 420.232H350.393L343.337 436H341.489ZM344.513 431.512L345.041 430.072H354.809L355.337 431.512H344.513Z" fill="white"/>
<path d="M320.984 436V419.2H327.824C329.616 419.2 331.184 419.56 332.528 420.28C333.888 420.984 334.944 421.968 335.696 423.232C336.448 424.496 336.824 425.952 336.824 427.6C336.824 429.248 336.448 430.704 335.696 431.968C334.944 433.232 333.888 434.224 332.528 434.944C331.184 435.648 329.616 436 327.824 436H320.984ZM322.76 434.464H327.728C329.216 434.464 330.504 434.176 331.592 433.6C332.696 433.008 333.552 432.2 334.16 431.176C334.768 430.136 335.072 428.944 335.072 427.6C335.072 426.24 334.768 425.048 334.16 424.024C333.552 423 332.696 422.2 331.592 421.624C330.504 421.032 329.216 420.736 327.728 420.736H322.76V434.464Z" fill="white"/>
<path d="M287.674 436V419.2H294.514C296.306 419.2 297.874 419.56 299.218 420.28C300.578 420.984 301.634 421.968 302.386 423.232C303.138 424.496 303.514 425.952 303.514 427.6C303.514 429.248 303.138 430.704 302.386 431.968C301.634 433.232 300.578 434.224 299.218 434.944C297.874 435.648 296.306 436 294.514 436H287.674ZM289.45 434.464H294.418C295.906 434.464 297.194 434.176 298.282 433.6C299.386 433.008 300.242 432.2 300.85 431.176C301.458 430.136 301.762 428.944 301.762 427.6C301.762 426.24 301.458 425.048 300.85 424.024C300.242 423 299.386 422.2 298.282 421.624C297.194 421.032 295.906 420.736 294.418 420.736H289.45V434.464Z" fill="white"/>
<path d="M264.551 436V419.2H266.015L277.607 433.792H276.839V419.2H278.591V436H277.127L265.559 421.408H266.327V436H264.551Z" fill="white"/>
<path d="M241.06 436L248.74 419.2H250.492L258.172 436H256.3L249.244 420.232H249.964L242.908 436H241.06ZM244.084 431.512L244.612 430.072H254.38L254.908 431.512H244.084Z" fill="white"/>
<path d="M216.134 436V419.2H217.91V434.464H227.318V436H216.134Z" fill="white"/>
<path d="M199.745 436.144C198.481 436.144 197.305 435.936 196.217 435.52C195.145 435.088 194.209 434.488 193.409 433.72C192.625 432.936 192.009 432.032 191.561 431.008C191.129 429.968 190.913 428.832 190.913 427.6C190.913 426.368 191.129 425.24 191.561 424.216C192.009 423.176 192.625 422.272 193.409 421.504C194.209 420.72 195.145 420.12 196.217 419.704C197.289 419.272 198.465 419.056 199.745 419.056C201.009 419.056 202.177 419.272 203.249 419.704C204.321 420.12 205.249 420.712 206.033 421.48C206.833 422.248 207.449 423.152 207.881 424.192C208.329 425.232 208.553 426.368 208.553 427.6C208.553 428.832 208.329 429.968 207.881 431.008C207.449 432.048 206.833 432.952 206.033 433.72C205.249 434.488 204.321 435.088 203.249 435.52C202.177 435.936 201.009 436.144 199.745 436.144ZM199.745 434.56C200.753 434.56 201.681 434.392 202.529 434.056C203.393 433.704 204.137 433.216 204.761 432.592C205.401 431.952 205.897 431.216 206.249 430.384C206.601 429.536 206.777 428.608 206.777 427.6C206.777 426.592 206.601 425.672 206.249 424.84C205.897 423.992 205.401 423.256 204.761 422.632C204.137 421.992 203.393 421.504 202.529 421.168C201.681 420.816 200.753 420.64 199.745 420.64C198.737 420.64 197.801 420.816 196.937 421.168C196.073 421.504 195.321 421.992 194.681 422.632C194.057 423.256 193.561 423.992 193.193 424.84C192.841 425.672 192.665 426.592 192.665 427.6C192.665 428.592 192.841 429.512 193.193 430.36C193.561 431.208 194.057 431.952 194.681 432.592C195.321 433.216 196.073 433.704 196.937 434.056C197.801 434.392 198.737 434.56 199.745 434.56Z" fill="white"/>
<path d="M176.012 436.144C174.748 436.144 173.572 435.936 172.484 435.52C171.412 435.088 170.476 434.488 169.676 433.72C168.892 432.936 168.276 432.032 167.828 431.008C167.396 429.968 167.18 428.832 167.18 427.6C167.18 426.368 167.396 425.24 167.828 424.216C168.276 423.176 168.892 422.272 169.676 421.504C170.476 420.72 171.412 420.12 172.484 419.704C173.556 419.272 174.732 419.056 176.012 419.056C177.276 419.056 178.444 419.272 179.516 419.704C180.588 420.12 181.516 420.712 182.3 421.48C183.1 422.248 183.716 423.152 184.148 424.192C184.596 425.232 184.82 426.368 184.82 427.6C184.82 428.832 184.596 429.968 184.148 431.008C183.716 432.048 183.1 432.952 182.3 433.72C181.516 434.488 180.588 435.088 179.516 435.52C178.444 435.936 177.276 436.144 176.012 436.144ZM176.012 434.56C177.02 434.56 177.948 434.392 178.796 434.056C179.66 433.704 180.404 433.216 181.028 432.592C181.668 431.952 182.164 431.216 182.516 430.384C182.868 429.536 183.044 428.608 183.044 427.6C183.044 426.592 182.868 425.672 182.516 424.84C182.164 423.992 181.668 423.256 181.028 422.632C180.404 421.992 179.66 421.504 178.796 421.168C177.948 420.816 177.02 420.64 176.012 420.64C175.004 420.64 174.068 420.816 173.204 421.168C172.34 421.504 171.588 421.992 170.948 422.632C170.324 423.256 169.828 423.992 169.46 424.84C169.108 425.672 168.932 426.592 168.932 427.6C168.932 428.592 169.108 429.512 169.46 430.36C169.828 431.208 170.324 431.952 170.948 432.592C171.588 433.216 172.34 433.704 173.204 434.056C174.068 434.392 175.004 434.56 176.012 434.56Z" fill="white"/>
<path d="M157.833 419.2H159.585V436H157.833V419.2ZM147.321 436H145.545V419.2H147.321V436ZM158.001 428.248H147.129V426.688H158.001V428.248Z" fill="white"/>
<path d="M131.991 436.144C130.727 436.144 129.559 435.936 128.487 435.52C127.415 435.088 126.487 434.488 125.703 433.72C124.919 432.952 124.303 432.048 123.855 431.008C123.423 429.968 123.207 428.832 123.207 427.6C123.207 426.368 123.423 425.232 123.855 424.192C124.303 423.152 124.919 422.248 125.703 421.48C126.503 420.712 127.439 420.12 128.511 419.704C129.583 419.272 130.751 419.056 132.015 419.056C133.231 419.056 134.375 419.264 135.447 419.68C136.519 420.08 137.423 420.688 138.159 421.504L137.031 422.632C136.343 421.928 135.583 421.424 134.751 421.12C133.919 420.8 133.023 420.64 132.063 420.64C131.055 420.64 130.119 420.816 129.255 421.168C128.391 421.504 127.639 421.992 126.999 422.632C126.359 423.256 125.855 423.992 125.487 424.84C125.135 425.672 124.959 426.592 124.959 427.6C124.959 428.608 125.135 429.536 125.487 430.384C125.855 431.216 126.359 431.952 126.999 432.592C127.639 433.216 128.391 433.704 129.255 434.056C130.119 434.392 131.055 434.56 132.063 434.56C133.023 434.56 133.919 434.4 134.751 434.08C135.583 433.76 136.343 433.248 137.031 432.544L138.159 433.672C137.423 434.488 136.519 435.104 135.447 435.52C134.375 435.936 133.223 436.144 131.991 436.144Z" fill="white"/>
<path d="M110.961 436.144C109.713 436.144 108.513 435.944 107.361 435.544C106.225 435.128 105.345 434.6 104.721 433.96L105.417 432.592C106.009 433.168 106.801 433.656 107.793 434.056C108.801 434.44 109.857 434.632 110.961 434.632C112.017 434.632 112.873 434.504 113.529 434.248C114.201 433.976 114.689 433.616 114.993 433.168C115.313 432.72 115.473 432.224 115.473 431.68C115.473 431.024 115.281 430.496 114.897 430.096C114.529 429.696 114.041 429.384 113.433 429.16C112.825 428.92 112.153 428.712 111.417 428.536C110.681 428.36 109.945 428.176 109.209 427.984C108.473 427.776 107.793 427.504 107.169 427.168C106.561 426.832 106.065 426.392 105.681 425.848C105.313 425.288 105.129 424.56 105.129 423.664C105.129 422.832 105.345 422.072 105.777 421.384C106.225 420.68 106.905 420.12 107.817 419.704C108.729 419.272 109.897 419.056 111.321 419.056C112.265 419.056 113.201 419.192 114.129 419.464C115.057 419.72 115.857 420.08 116.529 420.544L115.929 421.96C115.209 421.48 114.441 421.128 113.625 420.904C112.825 420.68 112.049 420.568 111.297 420.568C110.289 420.568 109.457 420.704 108.801 420.976C108.145 421.248 107.657 421.616 107.337 422.08C107.033 422.528 106.881 423.04 106.881 423.616C106.881 424.272 107.065 424.8 107.433 425.2C107.817 425.6 108.313 425.912 108.921 426.136C109.545 426.36 110.225 426.56 110.961 426.736C111.697 426.912 112.425 427.104 113.145 427.312C113.881 427.52 114.553 427.792 115.161 428.128C115.785 428.448 116.281 428.88 116.649 429.424C117.033 429.968 117.225 430.68 117.225 431.56C117.225 432.376 117.001 433.136 116.553 433.84C116.105 434.528 115.417 435.088 114.489 435.52C113.577 435.936 112.401 436.144 110.961 436.144Z" fill="white"/>
<path d="M88.2583 426.712H97.1383V428.224H88.2583V426.712ZM88.4503 434.464H98.5543V436H86.6743V419.2H98.1943V420.736H88.4503V434.464Z" fill="white"/>
<path d="M65.7305 436V419.2H72.0185C73.4425 419.2 74.6665 419.432 75.6905 419.896C76.7145 420.344 77.4985 421 78.0425 421.864C78.6025 422.712 78.8825 423.744 78.8825 424.96C78.8825 426.144 78.6025 427.168 78.0425 428.032C77.4985 428.88 76.7145 429.536 75.6905 430C74.6665 430.448 73.4425 430.672 72.0185 430.672H66.7145L67.5065 429.856V436H65.7305ZM77.2025 436L72.8825 429.904H74.8025L79.1465 436H77.2025ZM67.5065 430L66.7145 429.16H71.9705C73.6505 429.16 74.9225 428.792 75.7865 428.056C76.6665 427.32 77.1065 426.288 77.1065 424.96C77.1065 423.616 76.6665 422.576 75.7865 421.84C74.9225 421.104 73.6505 420.736 71.9705 420.736H66.7145L67.5065 419.896V430Z" fill="white"/>
<path d="M45.1384 436V419.2H51.4264C52.8504 419.2 54.0744 419.432 55.0984 419.896C56.1224 420.344 56.9064 421 57.4504 421.864C58.0104 422.712 58.2904 423.744 58.2904 424.96C58.2904 426.144 58.0104 427.168 57.4504 428.032C56.9064 428.88 56.1224 429.536 55.0984 430C54.0744 430.464 52.8504 430.696 51.4264 430.696H46.1224L46.9144 429.856V436H45.1384ZM46.9144 430L46.1224 429.136H51.3784C53.0584 429.136 54.3304 428.776 55.1944 428.056C56.0744 427.32 56.5144 426.288 56.5144 424.96C56.5144 423.616 56.0744 422.576 55.1944 421.84C54.3304 421.104 53.0584 420.736 51.3784 420.736H46.1224L46.9144 419.896V430Z" fill="white"/>
<path d="M471.917 401V365.384H479.405V401H471.917Z" fill="white"/>
<path d="M458.132 401V395.96L457.652 394.856V385.832C457.652 384.232 457.156 382.984 456.164 382.088C455.204 381.192 453.716 380.744 451.7 380.744C450.324 380.744 448.964 380.968 447.62 381.416C446.308 381.832 445.188 382.408 444.26 383.144L441.572 377.912C442.98 376.92 444.676 376.152 446.66 375.608C448.644 375.064 450.66 374.792 452.708 374.792C456.644 374.792 459.7 375.72 461.876 377.576C464.052 379.432 465.14 382.328 465.14 386.264V401H458.132ZM450.26 401.384C448.244 401.384 446.516 401.048 445.076 400.376C443.636 399.672 442.532 398.728 441.764 397.544C440.996 396.36 440.612 395.032 440.612 393.56C440.612 392.024 440.98 390.68 441.716 389.528C442.484 388.376 443.684 387.48 445.316 386.84C446.948 386.168 449.076 385.832 451.7 385.832H458.564V390.2H452.516C450.756 390.2 449.54 390.488 448.868 391.064C448.228 391.64 447.908 392.36 447.908 393.224C447.908 394.184 448.276 394.952 449.012 395.528C449.78 396.072 450.82 396.344 452.132 396.344C453.38 396.344 454.5 396.056 455.492 395.48C456.484 394.872 457.204 393.992 457.652 392.84L458.804 396.296C458.26 397.96 457.268 399.224 455.828 400.088C454.388 400.952 452.532 401.384 450.26 401.384Z" fill="white"/>
<path d="M424.8 374.792C426.848 374.792 428.672 375.208 430.272 376.04C431.904 376.84 433.184 378.088 434.112 379.784C435.04 381.448 435.504 383.592 435.504 386.216V401H428.016V387.368C428.016 385.288 427.552 383.752 426.624 382.76C425.728 381.768 424.448 381.272 422.784 381.272C421.6 381.272 420.528 381.528 419.568 382.04C418.64 382.52 417.904 383.272 417.36 384.296C416.848 385.32 416.592 386.632 416.592 388.232V401H409.104V375.176H416.256V382.328L414.912 380.168C415.84 378.44 417.168 377.112 418.896 376.184C420.624 375.256 422.592 374.792 424.8 374.792Z" fill="white"/>
<path d="M389.939 401.384C387.187 401.384 384.739 400.808 382.595 399.656C380.483 398.504 378.803 396.936 377.555 394.952C376.339 392.936 375.731 390.648 375.731 388.088C375.731 385.496 376.339 383.208 377.555 381.224C378.803 379.208 380.483 377.64 382.595 376.52C384.739 375.368 387.187 374.792 389.939 374.792C392.659 374.792 395.091 375.368 397.235 376.52C399.379 377.64 401.059 379.192 402.275 381.176C403.491 383.16 404.099 385.464 404.099 388.088C404.099 390.648 403.491 392.936 402.275 394.952C401.059 396.936 399.379 398.504 397.235 399.656C395.091 400.808 392.659 401.384 389.939 401.384ZM389.939 395.24C391.187 395.24 392.307 394.952 393.299 394.376C394.291 393.8 395.075 392.984 395.651 391.928C396.227 390.84 396.515 389.56 396.515 388.088C396.515 386.584 396.227 385.304 395.651 384.248C395.075 383.192 394.291 382.376 393.299 381.8C392.307 381.224 391.187 380.936 389.939 380.936C388.691 380.936 387.571 381.224 386.579 381.8C385.587 382.376 384.787 383.192 384.179 384.248C383.603 385.304 383.315 386.584 383.315 388.088C383.315 389.56 383.603 390.84 384.179 391.928C384.787 392.984 385.587 393.8 386.579 394.376C387.571 394.952 388.691 395.24 389.939 395.24Z" fill="white"/>
<path d="M363.214 401V375.176H370.702V401H363.214ZM366.958 371.576C365.582 371.576 364.462 371.176 363.598 370.376C362.734 369.576 362.302 368.584 362.302 367.4C362.302 366.216 362.734 365.224 363.598 364.424C364.462 363.624 365.582 363.224 366.958 363.224C368.334 363.224 369.454 363.608 370.318 364.376C371.182 365.112 371.614 366.072 371.614 367.256C371.614 368.504 371.182 369.544 370.318 370.376C369.486 371.176 368.366 371.576 366.958 371.576Z" fill="white"/>
<path d="M352.914 401.384C349.874 401.384 347.506 400.616 345.81 399.08C344.114 397.512 343.266 395.192 343.266 392.12V369.464H350.754V392.024C350.754 393.112 351.042 393.96 351.618 394.568C352.194 395.144 352.978 395.432 353.97 395.432C355.154 395.432 356.162 395.112 356.994 394.472L359.01 399.752C358.242 400.296 357.314 400.712 356.226 401C355.17 401.256 354.066 401.384 352.914 401.384ZM339.282 381.512V375.752H357.186V381.512H339.282Z" fill="white"/>
<path d="M328.569 401V395.96L328.089 394.856V385.832C328.089 384.232 327.593 382.984 326.601 382.088C325.641 381.192 324.153 380.744 322.137 380.744C320.761 380.744 319.401 380.968 318.057 381.416C316.745 381.832 315.625 382.408 314.697 383.144L312.009 377.912C313.417 376.92 315.113 376.152 317.097 375.608C319.081 375.064 321.097 374.792 323.145 374.792C327.081 374.792 330.137 375.72 332.313 377.576C334.489 379.432 335.577 382.328 335.577 386.264V401H328.569ZM320.697 401.384C318.681 401.384 316.953 401.048 315.513 400.376C314.073 399.672 312.969 398.728 312.201 397.544C311.433 396.36 311.049 395.032 311.049 393.56C311.049 392.024 311.417 390.68 312.153 389.528C312.921 388.376 314.121 387.48 315.753 386.84C317.385 386.168 319.513 385.832 322.137 385.832H329.001V390.2H322.953C321.193 390.2 319.977 390.488 319.305 391.064C318.665 391.64 318.345 392.36 318.345 393.224C318.345 394.184 318.713 394.952 319.449 395.528C320.217 396.072 321.257 396.344 322.569 396.344C323.817 396.344 324.937 396.056 325.929 395.48C326.921 394.872 327.641 393.992 328.089 392.84L329.241 396.296C328.697 397.96 327.705 399.224 326.265 400.088C324.825 400.952 322.969 401.384 320.697 401.384Z" fill="white"/>
<path d="M295.238 374.792C297.286 374.792 299.11 375.208 300.71 376.04C302.342 376.84 303.622 378.088 304.55 379.784C305.478 381.448 305.942 383.592 305.942 386.216V401H298.454V387.368C298.454 385.288 297.99 383.752 297.062 382.76C296.166 381.768 294.886 381.272 293.222 381.272C292.038 381.272 290.966 381.528 290.006 382.04C289.078 382.52 288.342 383.272 287.798 384.296C287.286 385.32 287.03 386.632 287.03 388.232V401H279.542V375.176H286.694V382.328L285.35 380.168C286.278 378.44 287.606 377.112 289.334 376.184C291.062 375.256 293.03 374.792 295.238 374.792Z" fill="white"/>
<path d="M259.011 401V375.176H266.163V382.472L265.155 380.36C265.923 378.536 267.155 377.16 268.851 376.232C270.547 375.272 272.611 374.792 275.043 374.792V381.704C274.723 381.672 274.435 381.656 274.179 381.656C273.923 381.624 273.651 381.608 273.363 381.608C271.315 381.608 269.651 382.2 268.371 383.384C267.123 384.536 266.499 386.344 266.499 388.808V401H259.011Z" fill="white"/>
<path d="M241.545 401.384C238.601 401.384 236.009 400.808 233.769 399.656C231.561 398.504 229.849 396.936 228.633 394.952C227.417 392.936 226.809 390.648 226.809 388.088C226.809 385.496 227.401 383.208 228.585 381.224C229.801 379.208 231.449 377.64 233.529 376.52C235.609 375.368 237.961 374.792 240.585 374.792C243.113 374.792 245.385 375.336 247.401 376.424C249.449 377.48 251.065 379.016 252.249 381.032C253.433 383.016 254.025 385.4 254.025 388.184C254.025 388.472 254.009 388.808 253.977 389.192C253.945 389.544 253.913 389.88 253.881 390.2H232.905V385.832H249.945L247.065 387.128C247.065 385.784 246.793 384.616 246.249 383.624C245.705 382.632 244.953 381.864 243.993 381.32C243.033 380.744 241.913 380.456 240.633 380.456C239.353 380.456 238.217 380.744 237.225 381.32C236.265 381.864 235.513 382.648 234.969 383.672C234.425 384.664 234.153 385.848 234.153 387.224V388.376C234.153 389.784 234.457 391.032 235.065 392.12C235.705 393.176 236.585 393.992 237.705 394.568C238.857 395.112 240.201 395.384 241.737 395.384C243.113 395.384 244.313 395.176 245.337 394.76C246.393 394.344 247.353 393.72 248.217 392.888L252.201 397.208C251.017 398.552 249.529 399.592 247.737 400.328C245.945 401.032 243.881 401.384 241.545 401.384Z" fill="white"/>
<path d="M219.227 401.384C216.187 401.384 213.819 400.616 212.123 399.08C210.427 397.512 209.579 395.192 209.579 392.12V369.464H217.067V392.024C217.067 393.112 217.355 393.96 217.931 394.568C218.507 395.144 219.291 395.432 220.283 395.432C221.467 395.432 222.475 395.112 223.307 394.472L225.323 399.752C224.555 400.296 223.627 400.712 222.539 401C221.483 401.256 220.379 401.384 219.227 401.384ZM205.595 381.512V375.752H223.499V381.512H205.595Z" fill="white"/>
<path d="M191.175 374.792C193.223 374.792 195.047 375.208 196.647 376.04C198.279 376.84 199.559 378.088 200.487 379.784C201.415 381.448 201.879 383.592 201.879 386.216V401H194.391V387.368C194.391 385.288 193.927 383.752 192.999 382.76C192.103 381.768 190.823 381.272 189.159 381.272C187.975 381.272 186.903 381.528 185.943 382.04C185.015 382.52 184.279 383.272 183.735 384.296C183.223 385.32 182.967 386.632 182.967 388.232V401H175.479V375.176H182.631V382.328L181.287 380.168C182.215 378.44 183.543 377.112 185.271 376.184C186.999 375.256 188.967 374.792 191.175 374.792Z" fill="white"/>
<path d="M160.257 401V367.4H168.033V401H160.257Z" fill="white"/>
<path d="M107.898 401V367.4H114.33L134.154 391.592H131.034V367.4H138.714V401H132.33L112.458 376.808H115.578V401H107.898Z" fill="white"/>
<path d="M84.0938 401V387.272L85.8698 391.976L71.0858 367.4H79.3418L90.6698 386.264H85.9178L97.2938 367.4H104.926L90.1418 391.976L91.8698 387.272V401H84.0938Z" fill="white"/>
<path d="M29.1496 401L18.1576 367.4H26.2216L35.7736 397.16H31.7416L41.7256 367.4H48.9256L58.5256 397.16H54.6376L64.4296 367.4H71.8696L60.8776 401H52.5256L44.0296 374.888H46.2376L37.5016 401H29.1496Z" fill="white"/>
<path d="M241.965 46.6036C234.307 39.3374 224.385 36.8503 217.527 36.728C215.421 36.6905 213.57 38.119 213.074 40.1662C209.171 56.2628 213.96 67.9016 221.937 75.6064C229.637 83.0437 239.962 86.5168 247.127 87.5187C249.585 87.8624 251.857 86.1508 252.205 83.6935C254.711 66.0267 249.847 54.0815 241.965 46.6036ZM221.079 46.0716C225.783 46.8393 231.361 48.9483 235.771 53.1324C240.604 57.7172 244.516 65.2509 243.783 77.6425C238.627 76.2264 232.716 73.5042 228.19 69.1333C223.084 64.2013 219.464 56.9374 221.079 46.0716Z" fill="white"/>
<path d="M257.035 46.6036C264.693 39.3374 274.615 36.8503 281.473 36.728C283.579 36.6905 285.43 38.119 285.926 40.1662C289.829 56.2628 285.04 67.9016 277.063 75.6064C269.363 83.0437 259.038 86.5168 251.873 87.5187C249.415 87.8624 247.143 86.1508 246.795 83.6935C244.289 66.0267 249.153 54.0815 257.035 46.6036ZM277.921 46.0716C273.217 46.8393 267.639 48.9483 263.229 53.1324C258.396 57.7172 254.484 65.2509 255.217 77.6425C260.373 76.2264 266.284 73.5042 270.81 69.1333C275.916 64.2013 279.536 56.9374 277.921 46.0716Z" fill="white"/>
</svg>
